<svg xmlns="http://www.w3.org/2000/svg" viewBox="0 0 64 64" fill="none">
  <rect width="64" height="64" rx="12" fill="#0b0e18"/>
  <g>
    <rect x="10" y="16" width="8" height="8" rx="2" fill="#ff7a00"/>
    <rect x="22" y="16" width="8" height="8" rx="2" fill="#c8a050"/>
    <rect x="34" y="16" width="8" height="8" rx="2" fill="#ff7a00"/>
    <rect x="46" y="16" width="8" height="8" rx="2" fill="#5cb870"/>
    <rect x="10" y="28" width="8" height="8" rx="2" fill="#c8a050"/>
    <rect x="22" y="28" width="8" height="8" rx="2" fill="#ff7a00"/>
    <rect x="34" y="28" width="8" height="8" rx="2" fill="#5cb870"/>
    <rect x="46" y="28" width="8" height="8" rx="2" fill="#ff7a00"/>
    <rect x="10" y="40" width="8" height="8" rx="2" fill="#ff7a00"/>
    <rect x="22" y="40" width="8" height="8" rx="2" fill="#5cb870"/>
    <rect x="34" y="40" width="8" height="8" rx="2" fill="#ff7a00"/>
    <rect x="46" y="40" width="8" height="8" rx="2" fill="#c8a050"/>
  </g>
</svg>